<svg width="40" height="40" viewBox="0 0 40 40" fill="none" xmlns="http://www.w3.org/2000/svg">
<path d="M13.2585 3.13622C13.1742 3.13622 13.0899 3.13622 12.9214 3.13622C12.9214 3.30689 12.9214 3.47756 12.9214 3.64822C13.0057 3.64822 13.0899 3.64822 13.1742 3.64822C13.427 3.64822 13.5955 3.47756 13.5955 3.39222C13.5955 3.22156 13.5113 3.05089 13.2585 3.13622Z" fill="#90949C"/>
<path d="M13.5955 2.53871C13.5955 2.36805 13.5113 2.28271 13.1742 2.28271C13.0899 2.28271 13.0057 2.28271 12.9214 2.28271C12.9214 2.45338 12.9214 2.62405 12.9214 2.79471C13.0057 2.79471 13.0899 2.79471 13.2585 2.79471C13.5113 2.79471 13.5955 2.62405 13.5955 2.53871Z" fill="#90949C"/>
<path d="M15.1122 3.39232C15.365 3.39232 15.5335 3.22166 15.5335 2.88032V2.53899C15.5335 2.19766 15.4493 2.02699 15.1965 2.11232C14.9436 2.11232 14.8594 2.28299 14.8594 2.62432V2.96566C14.8594 3.30699 14.9436 3.39232 15.1122 3.39232Z" fill="#90949C"/>
<path d="M18.9889 2.45316C19.3259 2.45316 19.4102 2.36783 19.4102 2.19716C19.4102 2.0265 19.2417 1.94116 19.0731 1.94116C19.0731 1.94116 18.9046 1.94116 18.8203 1.94116V2.45316C18.8203 2.45316 18.9046 2.45316 18.9889 2.45316Z" fill="#90949C"/>
<path d="M26.9943 3.64816C26.9943 3.64816 27.0786 3.64816 26.9943 3.64816C27.2471 3.64816 27.3314 3.4775 27.3314 3.2215V2.88016C27.3314 2.53883 27.2471 2.36816 26.9943 2.36816C26.7415 2.36816 26.6572 2.4535 26.6572 2.79483V3.13616C26.6572 3.4775 26.7415 3.64816 26.9943 3.64816Z" fill="#90949C"/>
<path d="M7.5282 3.30664C7.44393 3.30664 7.44393 3.30664 7.5282 3.30664C7.35966 3.56264 7.35966 3.90397 7.27539 4.15997C7.44393 4.15997 7.5282 4.07464 7.69674 4.07464C7.61247 3.81864 7.61247 3.56264 7.5282 3.30664Z" fill="#90949C"/>
<path d="M5 2.112V6.29333V12.096C5 12.2667 5 12.352 5 12.5227C5 12.6933 5 12.7787 5 12.9493C5 13.5467 5 14.2293 5.08427 14.9973C5.25281 17.472 5.8427 20.8853 7.19101 24.4693C9.21348 29.5893 12.7528 35.136 19.2416 39.488L20 40L20.7584 39.488C21.3483 39.0613 21.9382 38.6347 22.5281 38.208C27.5843 34.368 30.618 29.76 32.3876 25.4933C32.5562 25.152 32.6405 24.896 32.7247 24.5547C32.809 24.2133 32.9775 23.9573 33.0618 23.616C34.6629 18.9227 35 14.8267 35 12.608C35 12.5227 35 12.4373 35 12.352V7.31733V6.37867V2.112C25.2247 -0.704 14.7753 -0.704 5 2.112ZM31.7978 2.79467C31.9663 2.79467 32.1348 2.79467 32.2191 2.79467C32.2191 2.79467 32.3034 2.79467 32.3034 2.88V3.648C32.5562 3.73333 32.7247 3.73333 32.9775 3.81867V3.05067C32.9775 3.05067 32.9775 2.96533 33.0618 3.05067C33.1461 3.05067 33.3146 3.136 33.3989 3.136C33.3989 3.136 33.4831 3.136 33.4831 3.22133V5.184C33.4831 5.184 33.4831 5.26933 33.3989 5.26933C33.3146 5.26933 33.1461 5.184 33.0618 5.184C33.0618 5.184 32.9775 5.184 32.9775 5.09867V4.24533C32.7247 4.16 32.5562 4.16 32.3034 4.07467V4.928C32.3034 4.928 32.3034 5.01333 32.2191 5.01333C32.1348 5.01333 31.9663 4.928 31.882 4.928C31.882 4.928 31.7978 4.928 31.7978 4.84267V2.79467ZM26.1517 2.70933C26.1517 2.112 26.4888 1.856 26.8258 1.856C26.9101 1.856 26.9101 1.856 26.9944 1.856C27.4157 1.94133 27.8371 2.19733 27.8371 2.88V3.22133C27.8371 3.904 27.5 4.07467 26.9944 3.98933C26.573 3.904 26.1517 3.648 26.1517 2.96533V2.70933ZM23.8764 18.3253C23.4551 18.4107 23.0337 18.496 22.6124 18.496C22.191 18.496 21.7697 18.4107 21.3483 18.3253L20 16.192L17.6404 15.5093C17.2191 14.7413 16.882 13.888 16.7978 13.0347L18.2303 11.072L18.0618 8.59733C18.1461 8.512 18.2303 8.42667 18.3146 8.34133C18.8202 7.82933 19.4101 7.40267 20.0843 7.06133L22.3596 7.91467L24.5506 7.06133C25.2247 7.40267 25.8146 7.82933 26.3202 8.34133C26.4045 8.42667 26.4888 8.512 26.573 8.68267L26.4888 11.1573L28.0056 13.12C27.9213 14.0587 27.6685 14.912 27.2472 15.5947L24.8876 16.2773L23.8764 18.3253ZM25.0562 18.752V21.824L24.8876 21.6533L22.8652 19.264C22.9494 19.264 23.0337 19.264 23.118 19.264C23.7079 19.1787 24.4663 18.9227 25.0562 18.752ZM23.9607 1.77067C23.9607 1.68533 23.9607 1.68533 24.0449 1.68533C24.1292 1.68533 24.2135 1.68533 24.2978 1.68533C24.382 1.68533 24.382 1.68533 24.382 1.77067C24.5506 2.02667 24.6348 2.368 24.8034 2.624C24.9719 2.368 25.0562 2.112 25.2247 1.856C25.2247 1.77067 25.309 1.77067 25.309 1.77067C25.3933 1.77067 25.4775 1.77067 25.5618 1.77067C25.6461 1.77067 25.6461 1.856 25.6461 1.856V3.81867C25.6461 3.81867 25.6461 3.81867 25.5618 3.81867C25.4775 3.81867 25.309 3.81867 25.2247 3.81867C25.2247 3.81867 25.1404 3.81867 25.1404 3.73333V2.624C25.0562 2.79467 24.9719 2.88 24.8876 3.05067C24.8876 3.05067 24.8034 3.136 24.8034 3.05067C24.7191 3.05067 24.6348 3.05067 24.5506 3.05067C24.5506 3.05067 24.4663 3.05067 24.4663 2.96533C24.382 2.79467 24.2978 2.624 24.2135 2.45333V3.648C24.2135 3.648 24.2135 3.73333 24.1292 3.73333C24.0449 3.73333 23.8764 3.73333 23.7921 3.73333H23.7079V1.77067H23.9607ZM22.2753 2.112C22.2753 1.6 22.5281 1.51467 22.8652 1.51467H22.9494C23.2865 1.51467 23.3708 1.6 23.4551 1.6C23.5393 1.68533 23.5393 1.68533 23.5393 1.68533V1.94133C23.5393 1.94133 23.5393 2.02667 23.4551 2.02667C23.2865 2.02667 23.0337 2.02667 22.8652 2.02667C22.6966 2.02667 22.6966 2.02667 22.6966 2.19733V2.45333C22.9494 2.45333 23.2022 2.45333 23.4551 2.45333C23.4551 2.45333 23.5393 2.45333 23.5393 2.53867V2.79467C23.5393 2.79467 23.5393 2.88 23.4551 2.88C23.2022 2.88 22.9494 2.88 22.6966 2.88V3.22133C22.6966 3.392 22.7809 3.392 22.8652 3.392C23.0337 3.392 23.2865 3.392 23.4551 3.392C23.5393 3.30667 23.5393 3.392 23.5393 3.392V3.648C23.5393 3.648 23.5393 3.73333 23.4551 3.73333C23.3708 3.73333 23.2022 3.73333 22.9494 3.73333C22.6124 3.73333 22.2753 3.648 22.2753 3.05067V2.112ZM20.2528 1.6C20.2528 1.51467 20.3371 1.51467 20.3371 1.51467C20.4213 1.51467 20.5056 1.51467 20.5899 1.51467C20.6742 1.51467 20.6742 1.51467 20.6742 1.6C20.927 2.02667 21.0955 2.368 21.3483 2.79467V1.6C21.3483 1.6 21.3483 1.51467 21.4326 1.51467C21.5169 1.51467 21.6854 1.51467 21.7697 1.51467C21.7697 1.51467 21.8539 1.51467 21.8539 1.6C21.8539 2.28267 21.8539 2.88 21.8539 3.56267C21.8539 3.648 21.7697 3.648 21.7697 3.648C21.6854 3.648 21.6011 3.648 21.5169 3.648C21.4326 3.648 21.4326 3.648 21.3483 3.56267C21.0955 3.22133 20.927 2.79467 20.6742 2.45333V3.56267C20.6742 3.56267 20.6742 3.648 20.5899 3.648C20.5056 3.648 20.3371 3.648 20.2528 3.648C20.2528 3.648 20.1685 3.648 20.1685 3.56267V1.6H20.2528ZM18.3146 1.68533C18.3146 1.6 18.3146 1.6 18.4831 1.51467C18.6517 1.51467 18.8202 1.42933 19.073 1.42933C19.5787 1.42933 19.9157 1.6 19.9157 2.112C19.9157 2.45333 19.7472 2.624 19.5787 2.70933C19.7472 2.96533 19.8315 3.22133 20 3.47733C19.8315 3.47733 19.7472 3.47733 19.5787 3.47733C19.5787 3.47733 19.5787 3.47733 19.4944 3.392C19.4101 3.136 19.2416 2.88 19.1573 2.70933H19.073H18.9888V3.392C18.9888 3.392 18.9888 3.47733 18.9045 3.47733C18.8202 3.47733 18.6517 3.47733 18.5674 3.47733C18.5674 3.47733 18.4831 3.47733 18.4831 3.392V1.68533H18.3146ZM16.3764 1.68533C16.3764 1.6 16.3764 1.68533 16.3764 1.68533C16.5449 1.6 16.7135 1.6 16.7978 1.6C16.7978 1.6 16.882 1.6 16.882 1.68533V2.96533C16.882 3.22133 16.9663 3.392 17.2191 3.392C17.4719 3.392 17.5562 3.22133 17.5562 2.96533V1.6C17.5562 1.6 17.5562 1.51467 17.6404 1.51467C17.7247 1.51467 17.8933 1.51467 17.9775 1.51467C17.9775 1.51467 18.0618 1.51467 18.0618 1.6V2.88C18.0618 3.56267 17.7247 3.73333 17.2191 3.73333C16.7978 3.73333 16.3764 3.648 16.3764 2.96533V1.68533ZM14.3539 2.70933C14.3539 2.02667 14.691 1.77067 15.1966 1.68533H15.2809C15.7022 1.68533 16.0393 1.94133 16.0393 2.53867V2.88C16.0393 3.56267 15.7022 3.81867 15.1966 3.81867C14.691 3.81867 14.3539 3.648 14.3539 2.96533V2.70933ZM12.5 2.19733C12.5 2.112 12.5 2.02667 12.6685 2.02667C12.7528 2.02667 13.0056 1.94133 13.1742 1.94133C13.2584 1.94133 13.3427 1.94133 13.427 1.94133C13.8483 1.94133 14.0169 2.112 14.0169 2.45333V2.53867C14.0169 2.70933 13.9326 2.88 13.764 2.96533C13.9326 3.05067 14.0169 3.136 14.0169 3.392C14.0169 3.904 13.5955 4.07467 13.1742 4.16C13.0056 4.16 12.7528 4.16 12.6685 4.16C12.5843 4.16 12.5 4.16 12.5 3.98933V2.19733ZM10.1404 3.22133C10.1404 2.53867 10.5618 2.28267 10.9831 2.19733C11.0674 2.19733 11.236 2.19733 11.236 2.19733C11.3202 2.19733 11.3202 2.19733 11.3202 2.19733C11.3202 2.19733 11.4045 2.19733 11.4045 2.28267V2.53867C11.4045 2.53867 11.4045 2.624 11.3202 2.624C11.236 2.624 11.0674 2.624 10.8989 2.624C10.7303 2.624 10.5618 2.79467 10.5618 3.136V3.47733C10.5618 3.81867 10.7303 3.904 10.8989 3.904C11.0674 3.904 11.236 3.81867 11.3202 3.81867C11.3202 3.81867 11.4045 3.81867 11.4045 3.904V4.16C11.4045 4.16 11.4045 4.24533 11.3202 4.24533C11.3202 4.24533 11.236 4.33067 10.9831 4.33067C10.5618 4.416 10.1404 4.24533 10.1404 3.56267V3.22133ZM8.6236 3.22133C8.6236 2.70933 8.96067 2.53867 9.29775 2.45333C9.63483 2.368 9.7191 2.368 9.80337 2.368C9.80337 2.368 9.88764 2.368 9.88764 2.45333V2.70933C9.88764 2.70933 9.88764 2.79467 9.80337 2.79467C9.63483 2.88 9.46629 2.88 9.21348 2.96533C9.04494 2.96533 9.04494 3.05067 9.04494 3.22133V3.392C9.29775 3.392 9.55056 3.30667 9.80337 3.30667C9.80337 3.30667 9.88764 3.30667 9.88764 3.392V3.648C9.88764 3.648 9.88764 3.73333 9.80337 3.73333C9.55056 3.73333 9.29775 3.73333 9.04494 3.81867V4.672C9.04494 4.672 9.04494 4.75733 8.96067 4.75733C8.8764 4.75733 8.70787 4.84267 8.6236 4.84267C8.6236 4.84267 8.53933 4.84267 8.53933 4.75733V3.22133H8.6236ZM6.60112 5.184C6.76966 4.58667 6.85393 3.98933 7.02247 3.30667C7.10674 3.05067 7.27528 2.96533 7.52809 2.88C7.61236 2.88 7.61236 2.88 7.69663 2.88C7.86517 2.88 7.94944 2.96533 7.94944 3.136C8.11798 3.648 8.20225 4.24533 8.37079 4.75733C8.37079 4.75733 8.37079 4.84267 8.28652 4.84267C8.11798 4.84267 8.03371 4.928 7.86517 4.928H7.7809C7.7809 4.75733 7.69663 4.672 7.69663 4.50133C7.52809 4.50133 7.35955 4.58667 7.10674 4.672C7.10674 4.84267 7.02247 5.01333 7.02247 5.184C7.02247 5.184 7.02247 5.26933 6.9382 5.26933C6.9382 5.184 6.76966 5.184 6.60112 5.184C6.68539 5.184 6.60112 5.184 6.60112 5.184ZM8.96067 24.384C8.8764 24.2133 8.8764 24.0427 8.79214 23.9573C8.03371 21.9947 7.52809 20.032 7.19101 18.3253C6.85393 16.3627 6.68539 14.7413 6.68539 13.4613V6.80533C12.5843 5.26933 18.9045 4.84267 25.0562 5.35467V6.37867C24.2978 6.03733 23.2865 5.78133 22.5281 5.78133C18.9045 5.78133 16.1236 8.768 16.2079 12.5227C16.2079 14.0587 16.7135 15.5093 17.6404 16.6187C17.3034 16.8747 17.0506 17.1307 16.882 17.3013L13.6798 17.216L13.5955 18.4107C13.5112 18.4107 13.5112 18.4107 13.427 18.4107C13.2584 18.4107 13.0899 18.4107 12.9213 18.4107C12.5 18.4107 12.2472 18.752 12.1629 19.0933C11.9944 19.0933 11.8258 19.0933 11.573 19.1787C11.236 19.264 11.0674 19.6053 10.9831 19.9467C10.5618 19.9467 9.97191 20.1173 9.63483 20.4587C9.21348 21.056 9.21348 21.9947 9.63483 22.592C9.97191 23.104 11.9101 25.92 12.4157 26.944C12.7528 27.712 12.9213 30.1867 12.9213 31.3813C11.1517 29.0773 9.88764 26.688 8.96067 24.384ZM20 37.696C17.4719 35.9893 15.3652 33.9413 13.5112 31.7227C13.5112 31.2107 13.427 27.7973 12.9213 26.688C12.3315 25.408 10.1404 22.2507 10.0562 22.1653C9.80337 21.824 9.88764 21.1413 10.0562 20.8853C10.2247 20.7147 10.8146 20.544 11.236 20.544H11.573V20.2027C11.573 20.1173 11.573 19.8613 11.6573 19.776C11.9101 19.6907 12.0787 19.6907 12.2472 19.6907C12.3315 19.6907 12.3315 19.6907 12.3315 19.6907H12.6685V19.3493C12.6685 19.3493 12.6685 19.008 12.8371 18.9227C13.0056 18.9227 13.0899 18.9227 13.2584 18.9227C13.5112 18.9227 13.6798 18.9227 13.6798 18.9227H14.0169L14.1011 17.6427L17.0506 17.728L17.1348 17.5573C17.2191 17.3867 17.5562 17.0453 17.8933 16.8747C18.8202 17.8987 20.0843 18.6667 21.5169 18.9227L22.3596 20.3733V21.2267L22.6966 22.1653C22.6966 22.2507 22.6966 22.592 22.6966 22.848L22.5281 23.1893C22.4438 23.2747 22.3596 23.36 22.2753 23.4453L21.8539 23.7867C21.6854 23.872 21.4326 23.872 21.264 23.872H20.8427C20.5056 23.872 20.3371 23.7867 20.3371 23.7867H20.1685L17.4719 26.176L18.736 27.5413L19.1573 27.6267H19.2416C19.3258 27.6267 19.5787 27.712 19.7472 27.712C19.9157 27.7973 20.0843 27.8827 20.1685 28.0533C20.1685 28.1387 20.2528 28.3093 20.2528 28.48C20.2528 28.6507 20.2528 28.8213 20.1685 28.992C20.0843 29.1627 20 29.248 19.9157 29.3333C19.4944 29.5893 19.1573 29.5893 18.8202 29.5893C18.736 29.5893 18.6517 29.5893 18.5674 29.5893C18.4831 29.5893 18.3989 29.5893 18.3146 29.5893H18.2303H18.0618L17.4719 30.1013L22.5281 36.0747C21.5169 36.5867 20.7584 37.184 20 37.696ZM18.8202 25.7493L19.7472 26.8587C19.4944 26.7733 19.2416 26.7733 19.1573 26.7733H19.073L18.4831 26.0907L18.8202 25.7493ZM23.118 35.648L18.6517 30.4427C18.8202 30.4427 18.9045 30.4427 19.073 30.4427L23.3708 35.4773C23.2865 35.4773 23.2022 35.5627 23.118 35.648ZM23.7921 35.0507L19.7472 30.272C19.8315 30.1867 20 30.1867 20.0843 30.1013L24.0449 34.7947C23.9607 34.88 23.8764 34.9653 23.7921 35.0507ZM24.5506 34.368L20.5899 29.76C20.6742 29.6747 20.7584 29.5893 20.7584 29.504L24.7191 34.1973C24.7191 34.1973 24.6348 34.2827 24.5506 34.368ZM25.2247 33.6853L21.0112 28.8213C21.0112 28.736 21.0112 28.6507 21.0112 28.48C21.0112 28.3947 21.0112 28.3093 21.0112 28.224L25.4775 33.4293C25.309 33.5147 25.2247 33.6 25.2247 33.6853ZM25.8146 33.0027L19.3258 25.3227L19.5787 25.0667L26.0674 32.6613C25.9831 32.832 25.8989 32.9173 25.8146 33.0027ZM26.4888 32.2347L20 24.7253L20.2528 24.4693L26.6573 31.9787C26.6573 32.064 26.573 32.1493 26.4888 32.2347ZM27.0787 31.4667L21.0955 24.4693H21.264C21.3483 24.4693 21.4326 24.4693 21.5169 24.4693L27.2472 31.2107C27.2472 31.296 27.1629 31.3813 27.0787 31.4667ZM27.6685 30.6987L22.191 24.2987L22.4438 24.2133H22.5281L27.8371 30.4427C27.8371 30.528 27.7528 30.6133 27.6685 30.6987ZM28.2584 29.8453L23.0337 23.7013C23.0337 23.7013 23.0337 23.616 23.118 23.616L23.2022 23.36L28.5112 29.504C28.3427 29.6747 28.2584 29.76 28.2584 29.8453ZM28.764 29.0773L23.2865 22.6773C23.2865 22.5067 23.2865 22.336 23.2865 22.2507L23.2022 21.9947L28.9326 28.736C28.9326 28.8213 28.8483 28.9067 28.764 29.0773ZM29.2697 28.224L22.9494 20.8853V20.4587L22.3596 19.6053L29.4382 27.8827C29.4382 27.968 29.3539 28.0533 29.2697 28.224ZM29.5225 26.944L27.3315 24.4693V17.216C28.427 16.0213 28.9326 14.4 28.9326 12.608C28.9326 10.9013 28.427 9.36533 27.3315 8.08533V5.61067C27.9213 5.696 28.8483 5.86667 29.5225 5.952V26.944ZM29.7753 3.648C29.7753 4.33067 29.4382 4.416 28.9326 4.33067C28.5112 4.24533 28.0899 4.07467 28.0899 3.392V2.19733C28.0899 2.19733 28.0899 2.112 28.1742 2.112C28.2584 2.112 28.427 2.112 28.5112 2.19733C28.5112 2.19733 28.5955 2.19733 28.5955 2.28267V3.56267C28.5955 3.81867 28.6798 3.98933 28.9326 3.98933C29.1854 3.98933 29.2697 3.904 29.2697 3.648V2.368C29.2697 2.368 29.2697 2.28267 29.3539 2.28267C29.4382 2.28267 29.6067 2.28267 29.691 2.368C29.691 2.368 29.7753 2.368 29.7753 2.45333V3.648ZM31.5449 3.05067C31.4607 3.05067 31.5449 3.05067 31.5449 3.05067C31.3764 3.05067 31.2079 3.05067 31.0393 2.96533V4.58667C31.0393 4.58667 31.0393 4.672 30.9551 4.672C30.8708 4.672 30.7022 4.58667 30.618 4.58667C30.618 4.58667 30.5337 4.58667 30.5337 4.50133V2.88C30.3652 2.88 30.1966 2.79467 30.1124 2.79467C30.1124 2.79467 30.0281 2.79467 30.0281 2.70933V2.45333C30.0281 2.45333 30.0281 2.368 30.1124 2.368C30.5337 2.45333 31.0393 2.53867 31.4607 2.624C31.4607 2.624 31.5449 2.624 31.5449 2.70933V3.05067ZM31.7135 22.848V6.37867C32.3034 6.54933 32.809 6.63467 33.3989 6.80533V13.4613C33.3146 15.68 32.9775 19.008 31.7135 22.848Z" fill="#90949C"/>
<path d="M20.1685 11.84L21.0954 14.8266H24.1291L25.0561 11.84L22.528 9.96265L20.1685 11.84Z" fill="#90949C"/>
</svg>
