<svg width="32" height="16" viewBox="0 0 32 16" fill="none" xmlns="http://www.w3.org/2000/svg">
<path d="M2.38756 6.05956C2.88206 6.05956 3.28294 5.92638 3.28294 5.76208C3.28294 5.59779 2.88206 5.4646 2.38756 5.4646C1.89306 5.4646 1.49219 5.59779 1.49219 5.76208C1.49219 5.92638 1.89306 6.05956 2.38756 6.05956Z" fill="#90949C"/>
<path d="M1.09459 7.51938C1.58909 7.51938 1.98997 7.38338 1.98997 7.21562C1.98997 7.04786 1.58909 6.91187 1.09459 6.91187C0.600091 6.91187 0.199219 7.04786 0.199219 7.21562C0.199219 7.38338 0.600091 7.51938 1.09459 7.51938Z" fill="#90949C"/>
<path d="M1.09474 9.25654C1.69935 9.25654 2.18949 9.09188 2.18949 8.88877C2.18949 8.68565 1.69935 8.521 1.09474 8.521C0.490134 8.521 0 8.68565 0 8.88877C0 9.09188 0.490134 9.25654 1.09474 9.25654Z" fill="#90949C"/>
<path d="M2.55724 11.1834C3.25547 11.1834 3.82151 10.9962 3.82151 10.7654C3.82151 10.5345 3.25547 10.3474 2.55724 10.3474C1.859 10.3474 1.29297 10.5345 1.29297 10.7654C1.29297 10.9962 1.859 11.1834 2.55724 11.1834Z" fill="#90949C"/>
<path d="M24.0633 12.7461C24.7503 12.7461 25.3073 12.6151 25.3073 12.4536C25.3073 12.2921 24.7503 12.1611 24.0633 12.1611C23.3763 12.1611 22.8193 12.2921 22.8193 12.4536C22.8193 12.6151 23.3763 12.7461 24.0633 12.7461Z" fill="#90949C"/>
<path d="M5.65025 12.5779C6.40849 12.5779 7.02316 12.3908 7.02316 12.1599C7.02316 11.9291 6.40849 11.7419 5.65025 11.7419C4.89202 11.7419 4.27734 11.9291 4.27734 12.1599C4.27734 12.3908 4.89202 12.5779 5.65025 12.5779Z" fill="#90949C"/>
<path d="M19.517 13.5821C20.2752 13.5821 20.8899 13.3949 20.8899 13.1641C20.8899 12.9332 20.2752 12.7461 19.517 12.7461C18.7587 12.7461 18.144 12.9332 18.144 13.1641C18.144 13.3949 18.7587 13.5821 19.517 13.5821Z" fill="#90949C"/>
<path d="M31.6551 10.6874C31.4543 10.7418 31.2474 10.768 31.0401 10.7653C30.5458 10.7653 30.1447 10.6398 30.1447 10.4841C30.1447 10.3285 30.5458 10.2029 31.0401 10.2029C31.2152 10.2018 31.39 10.2194 31.5618 10.2557C31.5263 9.94748 31.51 9.63722 31.5128 9.32682V4.57585C31.5058 4.03041 31.4078 3.49048 31.2237 2.9805C31.0698 2.48592 30.7981 2.04112 30.4338 1.68883C29.9265 1.2337 29.3097 0.934149 28.6512 0.822818C27.7145 0.666729 26.7665 0.596989 25.8182 0.614435C25.1339 0.610577 24.4506 0.66806 23.7756 0.786351C23.2592 0.863474 22.7579 1.02802 22.2915 1.27345C21.8388 1.52014 21.4455 1.8716 21.1408 2.30142C20.8353 2.79699 20.6268 3.35184 20.5282 3.93323L24.277 4.34862C24.373 3.96944 24.5867 3.63477 24.8838 3.39726C25.3279 3.15055 25.8282 3.03798 26.3294 3.07212C26.7036 3.03152 27.0785 3.14046 27.3799 3.37719C27.6093 3.67608 27.7166 4.0583 27.6783 4.44025C27.2248 4.63038 26.7616 4.79421 26.291 4.93102C25.8524 5.05654 24.8975 5.27452 23.4259 5.58497C22.4901 5.69706 21.6088 6.10701 20.9006 6.75988C20.4345 7.31478 20.1898 8.03723 20.2169 8.77706C20.2115 9.19426 20.2936 9.60745 20.4576 9.98736C20.6217 10.3673 20.8636 10.7045 21.1659 10.9749C21.9556 11.6231 22.9459 11.9405 23.9453 11.866C24.7713 11.8832 25.5926 11.7319 26.3638 11.4205C26.4832 11.3702 26.5909 11.3099 26.7031 11.2459C26.7298 11.2261 26.7584 11.2098 26.7888 11.1971C27.1911 10.949 27.5631 10.6497 27.8958 10.3059C27.9247 10.5371 27.9695 10.7657 28.0304 10.9899C28.0304 11.0037 28.046 11.0263 28.0508 11.0414C28.6609 11.0602 29.1333 11.1819 29.1333 11.3301C29.1333 11.4556 28.7883 11.5635 28.3108 11.6037L28.3195 11.6226H32.0001C31.8594 11.322 31.7439 11.0091 31.6551 10.6874ZM27.6783 7.17282C27.6947 7.60522 27.6126 8.0355 27.4393 8.42802C27.2548 8.77674 26.9767 9.06056 26.6396 9.24393C26.2679 9.46518 25.8477 9.58028 25.4207 9.5778C25.0786 9.6038 24.7399 9.4936 24.4717 9.26906C24.3692 9.17017 24.2874 9.05004 24.2315 8.91618C24.1755 8.78233 24.1464 8.63766 24.1464 8.49145C24.1464 8.34524 24.1755 8.20057 24.2315 8.06672C24.2874 7.93286 24.3692 7.81273 24.4717 7.71385C24.926 7.38454 25.4416 7.15994 25.9843 7.05484C26.5693 6.89919 27.1317 6.72014 27.6713 6.51764L27.6783 7.17282Z" fill="#90949C"/>
<path d="M18.2152 10.6085V0.809185H14.6768V2.34294C14.3169 1.78226 13.8381 1.31741 13.2778 0.984931C12.6847 0.689864 12.0325 0.549055 11.3769 0.574448C10.8324 0.55305 10.2906 0.655385 9.78723 0.874611C9.28389 1.09384 8.83106 1.42474 8.46049 1.84466C7.65476 2.88125 7.25547 4.20201 7.34419 5.53748C7.28896 6.74118 7.59158 7.93315 8.20984 8.9479C8.55177 9.51131 9.02459 9.97371 9.58379 10.2915C10.143 10.6093 10.7704 10.772 11.406 10.7642C11.9827 10.7798 12.5548 10.6525 13.0761 10.3928C13.5974 10.1331 14.0531 9.74826 14.4069 9.26921V10.8419C14.4612 11.4101 14.3176 11.9798 14.0024 12.4449C13.8412 12.6077 13.6492 12.7328 13.4387 12.812C13.2282 12.8912 13.004 12.9226 12.7811 12.9043C12.4096 12.9189 12.0429 12.8127 11.7307 12.6004C11.5089 12.4144 11.3575 12.1515 11.3034 11.8587L7.63332 11.4194C7.62019 11.6403 7.61525 11.8159 7.61525 11.9465C7.59902 12.4272 7.69125 12.9052 7.88398 13.3414C8.07671 13.7776 8.36472 14.1598 8.72456 14.4569C9.95837 15.2129 11.3873 15.5411 12.8085 15.3946C13.5844 15.4043 14.3589 15.3226 15.1175 15.1511C15.7212 15.0213 16.2896 14.7505 16.7806 14.359C17.2322 13.9747 17.5918 13.4848 17.831 12.9282C18.092 12.3465 18.2267 11.711 18.2251 11.0679L18.2152 10.6085ZM9.72719 13.4163C8.83301 13.4163 8.10841 13.2281 8.10841 12.9971C8.10841 12.7662 8.83301 12.5791 9.72719 12.5791C10.6214 12.5791 11.346 12.7662 11.346 12.9971C11.346 13.2281 10.6238 13.4163 9.72719 13.4163ZM13.9569 7.48677C13.8069 7.66277 13.6238 7.8039 13.4189 7.90109C13.214 7.99827 12.9919 8.04947 12.7671 8.05124C12.5424 8.05302 12.32 8.0053 12.1137 7.91135C11.9074 7.81741 11.7218 7.67923 11.5692 7.50562C11.2309 7.02706 11.0694 6.43573 11.1146 5.84132C11.0602 5.19705 11.2117 4.55203 11.5453 4.00862C11.6849 3.82905 11.8621 3.68582 12.063 3.59002C12.2638 3.49422 12.4832 3.44853 12.7036 3.45641C12.9377 3.45436 13.1689 3.5073 13.381 3.61132C13.5931 3.71533 13.7806 3.86781 13.9295 4.05765C14.2929 4.55142 14.4712 5.16819 14.4308 5.79106C14.4768 6.39839 14.3081 7.00216 13.9569 7.48677ZM14.4536 13.9172C13.5594 13.9172 12.8336 13.7114 12.8336 13.4579C12.8336 13.2043 13.5594 12.9971 14.4536 12.9971C15.3477 12.9971 16.0723 13.203 16.0723 13.4579C16.0723 13.7127 15.3477 13.9172 14.4536 13.9172Z" fill="#90949C"/>
</svg>
