<svg width="40" height="40" viewBox="0 0 40 40" fill="none" xmlns="http://www.w3.org/2000/svg">
<path d="M16.0742 12.0433C16.6518 11.1902 17.5355 10.5454 18.5324 10.2683C18.3551 10.3899 18.2067 10.545 18.0594 10.6991C18.5723 10.633 19.1052 10.6926 19.5806 10.9005C19.6418 11.3508 19.6749 11.8053 19.7468 12.2539C19.8057 11.8032 19.8505 11.3508 19.9066 10.8998C20.3706 10.6998 20.8914 10.6293 21.3919 10.6998L21.4257 10.7265C21.4267 10.7187 21.4288 10.7032 21.4298 10.6957C21.2752 10.5484 21.1317 10.3882 20.953 10.2687C21.9486 10.5464 22.8322 11.1892 23.4091 12.0419C23.2398 11.9125 23.0463 11.8217 22.8549 11.7306C23.0752 12.1919 23.1868 12.7111 23.1334 13.2217C22.7159 13.4149 22.2914 13.5943 21.8787 13.7978C22.3296 13.7173 22.7771 13.6183 23.2264 13.5306C23.5778 13.9149 23.7974 14.4043 23.8973 14.9111C23.9961 14.7317 24.0938 14.5505 24.1554 14.3546C24.1902 15.3597 23.8597 16.3717 23.2384 17.1645C23.2949 16.9741 23.3248 16.7779 23.3513 16.582C22.9771 16.9334 22.5141 17.1964 22.0095 17.3074C21.6914 16.9693 21.3857 16.6193 21.0601 16.2885C21.2794 16.6947 21.5148 17.0919 21.7406 17.4943C21.479 17.943 21.0807 18.3043 20.6239 18.5505C20.8198 18.5858 21.0171 18.6176 21.2167 18.6234C20.2711 18.9587 19.2102 18.9577 18.2646 18.6224C18.4656 18.6183 18.6642 18.5858 18.8618 18.5505C18.405 18.3043 18.0067 17.943 17.7451 17.494C17.9703 17.0919 18.2071 16.6957 18.4243 16.2895C18.098 16.6204 17.7943 16.9731 17.4721 17.308C16.9703 17.1933 16.5069 16.9344 16.1351 16.5817C16.161 16.7793 16.1902 16.9769 16.2481 17.1683C15.6264 16.3738 15.2942 15.3615 15.3286 14.3546C15.393 14.5515 15.4911 14.7341 15.5902 14.9152C15.6839 14.4053 15.9093 13.9156 16.2598 13.5296C16.7093 13.6169 17.1568 13.7159 17.6078 13.7967C17.1954 13.5923 16.7699 13.4139 16.3524 13.22C16.2997 12.7104 16.4102 12.1916 16.6308 11.731C16.4381 11.8214 16.2443 11.9139 16.0742 12.0433ZM19.7427 12.458C19.0969 12.9255 18.4501 13.3919 17.8036 13.8584C18.0498 14.6152 18.298 15.3711 18.5451 16.1276C19.3451 16.1258 20.1451 16.1303 20.9451 16.1252C21.1878 15.368 21.4412 14.6142 21.6832 13.8567C21.035 13.3923 20.3902 12.9231 19.7427 12.458Z" fill="white"/>
<path d="M18.5277 0H18.6227C18.6757 0.0458904 18.7256 0.099315 18.7308 0.173288C19.0801 2.04384 19.4323 3.91404 19.7807 5.78493C19.8113 5.87911 19.7569 5.99109 19.6536 6.00377C18.9442 6.13048 18.253 6.36541 17.6213 6.71233C16.5686 7.28527 15.675 8.14829 15.0812 9.18664C15.0437 9.2524 14.9938 9.32808 14.9074 9.32534C14.7924 9.30274 14.6984 9.22774 14.5979 9.17329C13.0086 8.25445 11.4189 7.33664 9.82888 6.41883C9.76175 6.38219 9.69428 6.31644 9.7139 6.23253C9.75314 6.1137 9.83197 6.01335 9.89256 5.90548C11.129 3.86267 12.9659 2.19007 15.1118 1.13082C16.1893 0.595205 17.3442 0.219863 18.5277 0V0Z" fill="#951B80"/>
<path d="M21.7269 1.4139C23.4794 1.36835 25.2402 1.69096 26.8636 2.34883C28.1132 2.85568 29.2818 3.56013 30.3104 4.42931C30.3679 4.47931 30.4312 4.52452 30.4798 4.58411C30.5242 4.65637 30.498 4.74849 30.4398 4.80466C29.1875 6.2413 27.9352 7.67794 26.6836 9.11493C26.6447 9.15637 26.6006 9.20465 26.5386 9.20294C26.4598 9.20808 26.4054 9.14267 26.3493 9.09883C24.93 7.86904 22.9586 7.30089 21.0984 7.58753C21.0278 7.59438 20.9462 7.62144 20.8849 7.57246C20.834 7.54301 20.8195 7.48205 20.812 7.42829C20.5438 5.62692 20.2763 3.8252 20.0082 2.02383C19.9944 1.92007 19.9714 1.81698 19.9669 1.71219C19.9641 1.63377 20.0323 1.5687 20.108 1.56014C20.6436 1.47555 21.1848 1.42897 21.7269 1.4139Z" fill="#E40613"/>
<path d="M7.58708 6.38193C7.6518 6.34323 7.7265 6.36481 7.78743 6.39939C9.4814 7.30453 11.1778 8.2059 12.8714 9.11206C12.9792 9.16104 12.9781 9.30008 12.9134 9.38432C12.0026 11.0326 11.8687 13.0809 12.5589 14.8323C12.5819 14.9059 12.6336 14.9864 12.5912 15.0627C12.5509 15.1412 12.4539 15.1562 12.3802 15.1898C10.6201 15.8614 8.86178 16.5371 7.10206 17.2093C7.02805 17.2429 6.92856 17.2374 6.88209 17.1631C6.82392 17.0514 6.78812 16.9295 6.74199 16.8124C5.80499 14.2706 5.73132 11.4275 6.52237 8.83809C6.76712 8.02782 7.09621 7.24323 7.49724 6.49734C7.52168 6.45556 7.54405 6.4083 7.58708 6.38193Z" fill="#01509F"/>
<path d="M30.0654 6.69652C30.1312 6.65645 30.2124 6.68659 30.263 6.73693C31.7473 8.11193 32.8837 9.852 33.558 11.754C34.0069 13.0102 34.2454 14.3373 34.2854 15.6691V16.3489C34.2768 16.4677 34.2788 16.5883 34.2554 16.7058C34.2255 16.7924 34.126 16.8133 34.0448 16.8051C32.1274 16.7106 30.2093 16.6222 28.2919 16.526C28.1738 16.5297 28.1109 16.4071 28.1325 16.303C28.2434 14.4318 27.485 12.5314 26.1146 11.2455C26.0602 11.1907 25.9917 11.1404 25.9694 11.0633C25.9563 10.991 26.0072 10.9328 26.0523 10.8835C27.3212 9.55508 28.5893 8.22563 29.8575 6.89652C29.925 6.82837 29.9852 6.75063 30.0654 6.69652Z" fill="#F28800"/>
<path d="M19.1275 9.7547C20.5013 9.57148 21.9437 10.0194 22.965 10.9523C23.8645 11.7557 24.4383 12.9088 24.5285 14.1088C24.6304 15.316 24.2432 16.5544 23.471 17.491C22.6962 18.4468 21.5392 19.0848 20.3124 19.2246C18.9681 19.391 17.5633 18.9554 16.5557 18.054C15.6446 17.2568 15.058 16.1037 14.9585 14.8999C14.8625 13.8362 15.1416 12.7437 15.7378 11.8554C16.4931 10.7119 17.7616 9.92114 19.1275 9.7547ZM16.0742 12.0431C16.2442 11.9136 16.438 11.8211 16.6308 11.7307C16.4101 12.1913 16.2996 12.7102 16.3523 13.2198C16.7699 13.4136 17.1953 13.592 17.6077 13.7965C17.1568 13.7157 16.7093 13.6167 16.2597 13.5294C15.9093 13.9153 15.6838 14.405 15.5902 14.915C15.491 14.7338 15.3929 14.5513 15.3286 14.3544C15.2941 15.3612 15.6263 16.3735 16.248 17.1681C16.1902 16.9766 16.1609 16.779 16.1351 16.5814C16.5069 16.9342 16.9702 17.1931 17.4721 17.3078C17.7943 16.9729 18.0979 16.6201 18.4242 16.2893C18.207 16.6955 17.9702 17.0917 17.7451 17.4937C18.0067 17.9427 18.405 18.304 18.8618 18.5502C18.6642 18.5855 18.4656 18.6181 18.2645 18.6222C19.2101 18.9574 20.2711 18.9585 21.2167 18.6232C21.017 18.6174 20.8198 18.5855 20.6239 18.5502C21.0807 18.304 21.479 17.9427 21.7406 17.4941C21.5148 17.0917 21.2793 16.6944 21.06 16.2883C21.3857 16.6191 21.6914 16.9691 22.0094 17.3071C22.5141 17.1961 22.9771 16.9331 23.3513 16.5818C23.3247 16.7776 23.2948 16.9739 23.2383 17.1643C23.8597 16.3715 24.1902 15.3595 24.1554 14.3544C24.0938 14.5503 23.996 14.7314 23.8972 14.9109C23.7974 14.404 23.5778 13.9146 23.2263 13.5304C22.7771 13.6181 22.3296 13.717 21.8786 13.7975C22.2914 13.5941 22.7158 13.4146 23.1334 13.2215C23.1867 12.7109 23.0752 12.1917 22.8549 11.7304C23.0463 11.8215 23.2397 11.9122 23.4091 12.0417C22.8322 11.189 21.9485 10.5461 20.953 10.2684C21.1316 10.3879 21.2752 10.5482 21.4297 10.6955C21.4287 10.703 21.4266 10.7184 21.4256 10.7263L21.3919 10.6996C20.8914 10.629 20.3705 10.6996 19.9065 10.8996C19.8504 11.3506 19.8057 11.803 19.7468 12.2537C19.6748 11.805 19.6418 11.3506 19.5805 10.9003C19.1051 10.6924 18.5723 10.6328 18.0594 10.6989C18.2067 10.5448 18.3551 10.3896 18.5323 10.2681C17.5354 10.5451 16.6518 11.19 16.0742 12.0431Z" fill="#1D1D1B"/>
<path d="M19.7428 12.4578C20.3903 12.9228 21.035 13.392 21.6832 13.8564C21.4412 14.6139 21.1879 15.3677 20.9452 16.1249C20.1452 16.13 19.3452 16.1256 18.5452 16.1273C18.298 15.3708 18.0498 14.615 17.8037 13.8581C18.4502 13.3917 19.097 12.9252 19.7428 12.4578Z" fill="#1D1D1B"/>
<path d="M11.1309 16.4832C11.2403 16.4195 11.3612 16.4986 11.3901 16.6106C12.1326 18.3626 13.6892 19.7465 15.5212 20.2876C15.6317 20.3041 15.7181 20.4113 15.6713 20.5215C15.1006 22.3482 14.5267 24.1743 13.9539 26C13.9343 26.1133 13.8094 26.1702 13.7068 26.1222C12.2579 25.6828 10.8903 24.9808 9.68956 24.0619C7.95015 22.7376 6.56427 20.9571 5.71436 18.9489V18.8702C5.74912 18.8126 5.8011 18.7684 5.86479 18.7452C7.62107 17.9934 9.37459 17.2345 11.1309 16.4832Z" fill="#0090D7"/>
<path d="M26.4132 17.2047C26.4559 17.1969 26.4993 17.1955 26.5434 17.2003C28.4484 17.3503 30.3537 17.4958 32.2587 17.6445C32.3644 17.6404 32.4504 17.7369 32.4287 17.8417C32.2573 20.3198 31.3158 22.7345 29.7809 24.6917C29.0466 25.6321 28.1778 26.4681 27.2088 27.1667C27.1327 27.2338 27.0101 27.2088 26.9589 27.1249C25.8645 25.6431 24.7709 24.1606 23.6773 22.678C23.616 22.5859 23.5262 22.5061 23.4993 22.3965C23.4835 22.2962 23.5788 22.2404 23.6473 22.1897C25.1602 21.0948 26.1523 19.3249 26.2948 17.4695C26.3007 17.3729 26.2979 17.2383 26.4132 17.2047Z" fill="#FEED01"/>
<path d="M21.6678 21.3206C21.7538 21.2788 21.8443 21.3408 21.885 21.4158C22.9538 23.0014 24.0268 24.5843 25.0949 26.1703C25.1862 26.2829 25.087 26.4158 24.9758 26.4631C22.5476 28.0905 19.5428 28.834 16.6313 28.5415C15.8895 28.4682 15.1538 28.3319 14.4364 28.1309C14.3387 28.1124 14.2836 28.0021 14.3197 27.912C14.8299 26.0665 15.3438 24.222 15.8554 22.3771C15.8736 22.2607 16.0051 22.2062 16.1077 22.2555C17.5311 22.6607 19.0901 22.5586 20.4519 21.9829C20.8808 21.8079 21.2805 21.5716 21.6678 21.3206Z" fill="#00963F"/>
<path d="M5.80926 31.7939C6.36726 31.7932 6.92526 31.7935 7.48326 31.7939C7.48292 33.4425 7.48361 35.0911 7.48326 36.7401C8.15796 36.7404 8.83266 36.7397 9.50736 36.7404C9.50736 37.226 9.50908 37.712 9.50667 38.1976C8.27431 38.198 7.0423 38.198 5.81029 38.1976C5.80788 36.063 5.80994 33.9284 5.80926 31.7939Z" fill="white"/>
<path d="M16.216 31.7932C16.774 31.7939 17.332 31.7936 17.89 31.7936C17.8903 33.4425 17.89 35.0912 17.8903 36.7401C18.565 36.7422 19.2401 36.736 19.9151 36.7432C19.9137 37.2275 19.9151 37.7117 19.9144 38.196C18.6817 38.1956 17.4487 38.1956 16.216 38.1956C16.216 36.0617 16.2156 33.9275 16.216 31.7932Z" fill="white"/>
<path d="M10.8778 33.4243C11.2912 33.1178 11.8076 32.9524 12.3232 32.9648C12.6317 32.9675 12.9425 33.0363 13.2124 33.1874C13.411 33.2949 13.5862 33.4387 13.7546 33.5874C13.7542 33.413 13.7546 33.2391 13.7546 33.0651C14.2688 33.0648 14.7831 33.0648 15.2974 33.0651C15.2971 34.7754 15.2978 36.4853 15.2971 38.1956C14.7752 38.1959 14.2534 38.1956 13.7315 38.1956C13.7308 38.0305 13.7305 37.8654 13.7315 37.7007C13.3153 38.1062 12.7329 38.3356 12.1504 38.3219C11.6107 38.3175 11.0623 38.148 10.6489 37.7956C10.242 37.4565 9.98383 36.9671 9.86885 36.4569C9.77419 36.0257 9.75147 35.5754 9.82892 35.1401C9.95044 34.4665 10.3215 33.8322 10.8778 33.4243ZM12.2737 34.4384C12.0193 34.4969 11.7842 34.6411 11.6244 34.8476C11.3136 35.2456 11.295 35.8161 11.5022 36.2651C11.6434 36.5778 11.9315 36.8247 12.2713 36.8959C12.79 37.01 13.38 36.7774 13.641 36.3082C13.9439 35.7778 13.8255 35.0243 13.3298 34.6487C13.0351 34.4206 12.6334 34.3555 12.2737 34.4384Z" fill="white"/>
<path d="M24.0167 33.2422C24.4962 32.9603 25.0879 32.9007 25.6256 33.0257C26.0126 33.1144 26.3444 33.3541 26.6136 33.6374C26.6132 33.4466 26.6132 33.2555 26.6139 33.0648C27.1107 33.0651 27.6077 33.0644 28.1048 33.0651C28.1052 34.3713 28.1048 35.6774 28.1048 36.9839C28.099 37.337 28.1251 37.6928 28.0687 38.0432C27.9898 38.5644 27.7262 39.0603 27.3158 39.3976C26.8477 39.7901 26.2332 39.9696 25.6294 40H25.3151C24.8002 39.9737 24.28 39.849 23.8404 39.5726C23.3561 39.2791 23.0067 38.7726 22.9313 38.2107C23.5141 38.2107 24.0969 38.21 24.6797 38.211C24.7551 38.3182 24.8329 38.4288 24.9444 38.5024C25.1286 38.6274 25.363 38.6319 25.5781 38.6271C25.8921 38.6117 26.2367 38.5089 26.4232 38.2394C26.5864 38.0055 26.5447 37.7069 26.5413 37.4391C26.2277 37.7011 25.8566 37.9011 25.4549 37.9877C25.0074 38.0802 24.5303 38.0151 24.1196 37.8182C23.5657 37.5535 23.163 37.0353 22.9771 36.46C22.7699 35.8206 22.7854 35.1124 23.0143 34.4809C23.1984 33.9737 23.5444 33.5151 24.0167 33.2422ZM25.111 34.3391C24.7719 34.4319 24.5186 34.7237 24.4198 35.0524C24.2811 35.5011 24.3358 36.037 24.6556 36.3983C24.9661 36.75 25.5107 36.8038 25.9272 36.624C26.1809 36.5151 26.3864 36.3065 26.5014 36.0579C26.6638 35.7158 26.6521 35.3079 26.5144 34.96C26.4101 34.6959 26.194 34.4778 25.9258 34.3788C25.6673 34.2843 25.3771 34.2665 25.111 34.3391Z" fill="white"/>
<path d="M29.8949 33.4046C30.4326 33.0155 31.1413 32.871 31.7885 33.0241C32.1561 33.1128 32.4694 33.3392 32.7455 33.5881C32.7451 33.4135 32.7451 33.2392 32.7455 33.0649C33.2587 33.0649 33.7723 33.0649 34.2859 33.0652V38.196C33.7637 38.1957 33.2415 38.196 32.7196 38.1957C32.7196 38.0309 32.719 37.8666 32.72 37.7022C32.5358 37.8782 32.3231 38.0248 32.0894 38.1282C31.4842 38.4022 30.7651 38.3765 30.1592 38.1193C29.603 37.8827 29.1768 37.3957 28.9716 36.8344C28.7699 36.2837 28.7193 35.6768 28.826 35.1008C28.9551 34.4306 29.3345 33.8036 29.8949 33.4046ZM31.2415 34.444C31.0212 34.4988 30.8171 34.6176 30.6656 34.7864C30.3176 35.1707 30.2759 35.7583 30.4732 36.2231C30.5954 36.5183 30.8412 36.7655 31.1489 36.8652C31.6625 37.0323 32.2807 36.8368 32.5823 36.3847C32.9382 35.8611 32.8425 35.0686 32.3431 34.6673C32.0405 34.42 31.6164 34.3505 31.2415 34.444Z" fill="white"/>
<path d="M21.184 30.8411C21.4408 30.7846 21.721 30.8336 21.9375 30.9843C22.217 31.1716 22.3771 31.5185 22.3344 31.8518C22.2972 32.237 21.9974 32.5788 21.6194 32.6685C21.2903 32.7569 20.9151 32.6511 20.692 32.3925C20.4211 32.0918 20.3805 31.6155 20.5932 31.2723C20.7213 31.0572 20.9389 30.897 21.184 30.8411Z" fill="white"/>
<path d="M20.6069 33.0652C21.1264 33.0649 21.6455 33.0649 22.1649 33.0652V38.1957C21.6458 38.1957 21.1264 38.196 20.6073 38.1957C20.6066 36.4854 20.6073 34.7755 20.6069 33.0652Z" fill="white"/>
</svg>
