<svg width="20" height="40" viewBox="0 0 20 40" fill="none" xmlns="http://www.w3.org/2000/svg">
<path d="M2.53542 32.1608L2.68336 31.7887C2.68336 31.7887 2.25961 31.5583 1.85991 31.3013C1.41457 31.016 1.08992 30.7695 1.08992 30.7695L0.752161 31.0142C1.03403 31.033 1.29937 31.1515 1.49719 31.3474L0.54808 32.6623C0.396592 32.8626 0.144187 33.2225 0 33.2561L0.297656 33.4688C0.443668 33.5751 0.604224 33.6743 0.604224 33.6743C0.691469 33.4354 0.814821 33.2104 0.969611 33.0063L1.94635 31.6345C2.24933 31.8135 2.48067 31.9357 2.53542 32.1608Z" fill="#90949C"/>
<path d="M17.3266 35.9446L17.2339 35.9924L17.1421 36.0367V36.0828C17.1512 36.0598 17.1842 36.0438 17.2134 36.0296L17.3025 36.2068C17.319 36.2312 17.3292 36.2592 17.3319 36.2883L17.3702 36.2706L17.4103 36.2511C17.3939 36.2511 17.3706 36.2016 17.3542 36.1733L17.2686 36.0119C17.2924 35.9957 17.32 35.9859 17.3488 35.9835L17.3266 35.9446Z" fill="#90949C"/>
<path d="M2.05718 32.9834C2.00231 33.1935 2.00993 33.4145 2.07946 33.6205C2.14899 33.8265 2.27699 34.009 2.4493 34.1468C2.62161 34.2847 2.83112 34.3719 3.05263 34.3987C3.27415 34.4255 3.49867 34.3906 3.70053 34.2981C3.90238 34.2055 4.07303 34.0591 4.19246 33.876C4.31189 33.6929 4.37528 33.4805 4.37515 33.2637C4.37503 33.047 4.31121 32.8347 4.19157 32.6517C4.07193 32.4687 3.90159 32.3226 3.69964 32.2303C3.54155 32.167 3.37151 32.1364 3.20057 32.1405C3.02963 32.1447 2.86148 32.1834 2.70685 32.2543C2.55223 32.3252 2.41417 32.4267 2.30226 32.5522C2.19034 32.6777 2.10728 32.8246 2.05718 32.9834ZM3.60784 32.4269C4.04223 32.6272 3.87677 33.1838 3.61943 33.7066C3.36208 34.2294 3.01821 34.7077 2.58565 34.5075C2.15309 34.3072 2.31918 33.7472 2.58565 33.2244C2.85212 32.7016 3.1752 32.2267 3.61141 32.4269H3.60784Z" fill="#90949C"/>
<path d="M5.10568 35.5566C5.04545 35.4555 5.23494 34.9186 5.27145 34.7769L5.74645 33.2279C6.13886 33.3253 6.19541 33.3679 6.3177 33.5398L6.3578 33.1409C6.3578 33.1409 5.98355 33.0577 5.52543 32.9319C5.01987 32.7919 4.75456 32.689 4.75456 32.689L4.51928 33.0275C4.71458 32.9407 4.80744 32.9496 5.21263 33.0808L4.73673 34.6404C4.67977 34.9005 4.56822 35.1465 4.40967 35.3634C4.5244 35.4055 4.64208 35.4416 4.7608 35.4715C4.97434 35.53 5.10568 35.5566 5.10568 35.5566Z" fill="#90949C"/>
<path d="M7.6277 33.5982C8.07303 33.6532 8.13704 33.701 8.30678 33.8464L8.28807 33.4457C8.28807 33.4457 7.86289 33.4085 7.41025 33.3429C6.95761 33.2774 6.60016 33.1941 6.60016 33.1941L6.43262 33.5733C6.61513 33.4688 6.69714 33.4387 7.08407 33.5149L6.81939 35.1258C6.79851 35.3865 6.72627 35.6411 6.60729 35.8756C6.60729 35.8756 6.74038 35.9039 6.95574 35.934C7.17111 35.9642 7.32113 35.9801 7.32113 35.9801C7.2903 35.7163 7.30381 35.4492 7.36123 35.1896L7.6277 33.5982Z" fill="#90949C"/>
<path d="M8.51954 35.3493C8.52975 35.6034 8.49402 35.8572 8.4126 36.0989C8.4126 36.0989 8.81596 36.1325 9.32517 36.1396C9.79424 36.1396 10.113 36.1396 10.113 36.1396L10.2012 35.6522C10.0187 35.8968 9.62922 35.9323 9.05247 35.9252L9.08723 34.8619H9.83226C9.90161 34.8619 9.90355 34.8246 9.90355 34.7537C9.90355 34.6828 9.9034 34.6456 9.83404 34.6438H9.10416L9.13179 33.7471C9.46674 33.6997 9.80792 33.762 10.1023 33.9243L10.0381 33.5221C10.0381 33.5221 9.75401 33.5381 9.2521 33.5221C8.86699 33.5062 8.91968 33.5078 8.50172 33.4795C8.59845 33.5734 8.57305 34.0252 8.57123 34.3053L8.51954 35.3493Z" fill="#90949C"/>
<path d="M12.3018 35.9996C12.3379 35.9958 12.3728 35.9848 12.4042 35.9671C12.4357 35.9494 12.4631 35.9254 12.4844 35.8968C12.3932 35.8454 12.351 35.5654 12.3018 35.1773L12.1761 34.1334C12.1225 33.8762 12.113 33.612 12.1485 33.3518C12.1485 33.3518 12.0881 33.3643 11.9257 33.3856L11.7162 33.4122C11.8196 33.6505 11.8806 33.9038 11.898 34.1618L12.0094 35.0479L10.6682 33.5006L10.2681 33.5149C10.3572 33.772 10.4037 34.0411 10.4053 34.3124L10.4677 35.3599C10.5023 35.6147 10.4893 35.8732 10.4294 36.1236L10.8634 36.1041C10.7703 36.0296 10.7541 35.4786 10.7377 35.3315L10.6878 34.4045L11.997 35.8631C12.0299 35.9109 12.076 35.9491 12.1298 35.9732C12.1835 35.9973 12.2429 36.0063 12.3018 35.9996Z" fill="#90949C"/>
<path d="M14.7161 35.459L15.0503 35.3617C14.9134 35.2713 14.8224 34.8069 14.7749 34.6261L14.5227 33.6C14.4386 33.3565 14.3942 33.1018 14.3899 32.845C14.3899 32.845 14.291 32.8805 14.0629 32.9443L13.7233 33.0382C13.856 33.2493 13.9453 33.4835 13.9862 33.7276L14.0762 34.0662L13.2563 34.2592L13.1922 33.928C13.1281 33.6814 13.1035 33.4267 13.1191 33.1729C13.1191 33.1729 13.0044 33.2048 12.7653 33.2491L12.4204 33.3146C12.5317 33.3714 12.6245 33.8641 12.661 34.0591L12.8624 35.1012C12.9209 35.3498 12.9367 35.606 12.9097 35.8597C12.9097 35.8597 13.052 35.8383 13.2546 35.7976L13.6199 35.7249C13.5086 35.6593 13.421 35.1224 13.3936 34.9629L13.3 34.4701L14.1306 34.2717L14.2545 34.7572C14.3351 35.0155 14.3722 35.285 14.3641 35.5548C14.3641 35.5548 14.6048 35.4927 14.7161 35.459Z" fill="#90949C"/>
<path d="M16.9672 33.9774L15.7766 32.5438C15.6397 32.3896 15.5617 32.386 15.3756 32.4622C15.2623 32.5123 15.1533 32.5715 15.0503 32.6394C15.0873 32.6666 15.1179 32.7017 15.1385 32.7421C15.1621 32.8078 15.1756 32.8765 15.1786 32.9459L15.2508 34.9964C15.2626 35.1109 15.2436 35.2266 15.1947 35.3315L15.4103 35.266C15.5509 35.2217 15.6349 35.1913 15.6349 35.1913C15.6024 35.1752 15.577 35.1482 15.5636 35.1152C15.534 34.999 15.5157 34.8804 15.5101 34.7608L15.4834 34.3283L16.2953 34.0201L16.5306 34.3052C16.614 34.405 16.6891 34.5112 16.7551 34.6226C16.782 34.678 16.7869 34.7409 16.7694 34.7998C16.7694 34.7998 16.9209 34.743 17.149 34.6438L17.5002 34.4915C17.2818 34.3652 17.0988 34.1886 16.9672 33.9774ZM15.4772 34.0856L15.4264 32.8663L16.1563 33.8375L15.4772 34.0856Z" fill="#90949C"/>
<path d="M19.429 32.4657L18.7829 31.6594C18.5971 31.4485 18.4494 31.2089 18.3453 30.9504C18.3453 30.9504 18.2097 31.0479 18.0619 31.1436C17.9141 31.2393 17.832 31.2942 17.832 31.2942L18.4219 33.047L16.923 31.8065C16.923 31.8065 16.8014 31.872 16.6645 31.9376L16.3481 32.0864C16.4978 32.1449 16.6715 32.4409 16.8285 32.721L17.3489 33.6672C17.4982 33.8872 17.6049 34.1315 17.6644 34.3885L17.8471 34.3018C17.9639 34.2468 18.0548 34.199 18.0548 34.199C17.9069 34.1565 17.6903 33.717 17.5735 33.5061L17.1074 32.6712L18.438 33.7347C18.4807 33.7741 18.5369 33.7968 18.5957 33.7988C18.6546 33.8007 18.7125 33.7818 18.7579 33.7453C18.7968 33.7135 18.8295 33.6759 18.8559 33.6337L18.2918 31.8881L18.9932 32.7742C19.1673 32.9696 19.3068 33.1918 19.4058 33.4316L19.6901 33.2436C19.8544 33.1355 20.0002 33.0241 20.0002 33.0241C19.8214 33.001 19.5659 32.6323 19.429 32.4657Z" fill="#90949C"/>
<path d="M17.412 35.9003L17.3701 35.9217C17.392 35.9217 17.4161 35.9625 17.4307 35.9873L17.4967 36.0952C17.5076 36.1112 17.5386 36.1592 17.535 36.1822L17.5582 36.1697L17.584 36.1556C17.5639 36.1467 17.538 36.1006 17.5234 36.0758L17.4637 35.9819L17.617 36.1006C17.6195 36.1033 17.6224 36.1055 17.6259 36.1069C17.6293 36.1084 17.6328 36.1091 17.6366 36.1091C17.6404 36.1091 17.6447 36.1084 17.6482 36.1069C17.6516 36.1055 17.6545 36.1033 17.6571 36.1006L17.6696 36.0883L17.6054 35.8897L17.682 35.9907C17.7028 36.0129 17.7195 36.0388 17.7302 36.0669L17.7631 36.0457L17.7997 36.0208C17.774 36.0021 17.7516 35.9794 17.7337 35.9535L17.6606 35.8614C17.6386 35.8379 17.6236 35.8091 17.617 35.7781L17.5822 35.8012L17.5492 35.8187L17.6152 36.0156L17.445 35.8774L17.412 35.9003Z" fill="#90949C"/>
<path d="M4.66878 36.5614C4.66878 36.5614 4.48662 36.5011 4.34973 36.4515L3.9995 36.3276C3.97647 36.5947 3.90258 36.8554 3.78205 37.0966L3.65817 37.398L2.84185 37.0718L2.97018 36.8059C3.07056 36.5932 3.26021 36.1202 3.39527 36.0688C3.29854 36.0316 3.21215 35.9942 3.04058 35.918C2.94052 35.8776 2.84362 35.8314 2.74916 35.7798C2.7091 36.055 2.61703 36.3206 2.47735 36.5632L2.04067 37.5008C1.90379 37.7843 1.79801 38.066 1.61914 38.1511C1.61914 38.1511 1.67558 38.1813 1.92927 38.2947C2.14464 38.3922 2.29466 38.4488 2.29466 38.4488C2.24903 38.3265 2.43719 37.933 2.51567 37.7576L2.75808 37.2578L3.59223 37.5964L3.43181 38.034C3.38071 38.1723 3.22017 38.7236 3.0486 38.7679C3.18914 38.8264 3.26382 38.8494 3.39706 38.8955L3.74373 39.0143C3.6908 38.8814 3.84938 38.5127 3.94246 38.2575L4.29092 37.3199C4.3658 37.046 4.49411 36.7885 4.66878 36.5614Z" fill="#90949C"/>
<path d="M5.99592 36.9052C5.73489 36.7874 5.44248 36.7504 5.1591 36.7994C4.87571 36.8484 4.6154 36.981 4.41228 37.1791C4.20916 37.3771 4.07391 37.631 4.02462 37.9064C3.97532 38.1818 4.01453 38.4651 4.13691 38.7181C4.25929 38.9711 4.45842 39.1814 4.70816 39.3204C4.95789 39.4594 5.24585 39.5203 5.5325 39.495C5.81916 39.4696 6.09074 39.3592 6.31051 39.1787C6.53028 38.9982 6.68727 38.7563 6.76056 38.486C6.82611 38.3342 6.85859 38.1707 6.85502 38.0061C6.85146 37.8416 6.81213 37.6796 6.74006 37.5306C6.66799 37.3816 6.56433 37.2489 6.43617 37.1412C6.30801 37.0335 6.15809 36.9531 5.99592 36.9052ZM6.20268 38.3425C6.05484 38.8919 5.81162 39.4059 5.34803 39.2942C4.88444 39.1826 4.93729 38.6067 5.08513 38.0537C5.23297 37.5008 5.47436 36.9903 5.93978 37.1072C6.40519 37.2242 6.35051 37.7949 6.20268 38.3425Z" fill="#90949C"/>
<path d="M7.89241 37.2598C7.52738 37.2155 7.22986 37.1834 7.0948 37.1533L6.91211 37.5449C7.09462 37.435 7.21308 37.405 7.64199 37.4581L7.43969 38.9859C7.41469 39.1926 7.3786 39.3977 7.33186 39.6008C7.31735 39.6549 7.29059 39.7052 7.25343 39.7479C7.32644 39.7603 7.49288 39.7887 7.61882 39.8011C7.74476 39.8135 7.88501 39.8277 7.97262 39.8383C7.92913 39.5777 7.93578 39.3116 7.99134 39.0532L8.19364 37.5202C8.55866 37.5468 8.72106 37.5645 8.87985 37.7435L8.85579 37.3519C8.85579 37.3519 8.13698 37.2881 7.89241 37.2598Z" fill="#90949C"/>
<path d="M10.1825 38.4877C9.80284 38.2822 9.52032 38.1475 9.52032 37.8976C9.51624 37.848 9.52326 37.7981 9.54171 37.7518C9.56016 37.7054 9.58904 37.6636 9.62637 37.6295C9.66371 37.5955 9.70853 37.5701 9.75738 37.5551C9.80622 37.5401 9.85818 37.5359 9.90888 37.543C10.0392 37.5505 10.1658 37.5892 10.2769 37.6557C10.3881 37.7222 10.4806 37.8145 10.5461 37.9242L10.6441 37.5252C10.4143 37.4053 10.1573 37.3443 9.8964 37.3481C9.42004 37.3481 9.01413 37.5785 9.01413 38.0304C9.01413 38.3636 9.18104 38.587 9.62637 38.8103C10.0717 39.0336 10.2012 39.1647 10.1994 39.3579C10.1978 39.4188 10.1825 39.4788 10.1557 39.534C10.129 39.5891 10.0908 39.638 10.0434 39.678C9.99607 39.718 9.94121 39.7482 9.88125 39.7663C9.8213 39.7844 9.75737 39.7901 9.695 39.7832C9.55228 39.7661 9.41747 39.712 9.30376 39.6266C9.19006 39.5411 9.10165 39.4274 9.04888 39.2975L8.95264 39.7336C9.17497 39.9134 9.45748 40.0078 9.74668 39.9993C10.3399 40.0082 10.7244 39.6752 10.719 39.2162C10.7135 38.9627 10.615 38.7252 10.1825 38.4877Z" fill="#90949C"/>
<path d="M12.875 37.809C12.8273 37.6562 12.7272 37.5242 12.5908 37.4352C12.3546 37.294 12.0742 37.2393 11.8003 37.2809C11.2034 37.3359 10.8877 37.3819 10.8877 37.3819C10.9929 37.6205 11.0468 37.8774 11.0463 38.137L11.1684 39.3775C11.1929 39.5479 11.1821 39.7213 11.1372 39.8878C11.1372 39.8878 11.2887 39.8878 11.4803 39.8683C11.734 39.8488 11.868 39.8348 11.868 39.8348C11.7512 39.7338 11.7106 39.2427 11.6978 39.1027L11.5392 37.5185C11.5389 37.5136 11.5392 37.5086 11.5409 37.504C11.5426 37.4994 11.5456 37.495 11.549 37.4914C11.5523 37.4878 11.5569 37.4851 11.5614 37.483C11.566 37.4809 11.5707 37.4795 11.5757 37.4793C11.6396 37.4687 11.6996 37.4635 11.6996 37.4635C11.8456 37.4483 11.9923 37.4867 12.1104 37.5715C12.1785 37.627 12.2336 37.6962 12.2717 37.7742C12.3098 37.8522 12.3302 37.9371 12.3314 38.0234C12.3578 38.2032 12.3128 38.3861 12.2067 38.5357C12.1203 38.6367 11.9964 38.7004 11.8618 38.7129H11.8315C11.8041 38.7129 11.8056 38.7483 11.8056 38.7483V38.7678C11.8056 38.8529 11.8419 38.89 11.966 38.8812C12.1034 38.8828 12.2398 38.8578 12.3671 38.8076C12.4943 38.7574 12.6103 38.6831 12.7075 38.5889C12.8247 38.4666 12.8968 38.3101 12.9134 38.1439C12.9192 38.085 12.9192 38.0256 12.9134 37.9667C12.905 37.9132 12.8922 37.8605 12.875 37.809Z" fill="#90949C"/>
<path d="M15.0869 37.4704C14.9937 37.2183 14.9513 36.9513 14.9612 36.6836C14.8882 36.7084 14.7787 36.7368 14.6181 36.7846L14.275 36.8768C14.4112 37.0938 14.5023 37.3347 14.5432 37.5857L14.8338 38.649C14.8857 38.7987 14.8805 38.9614 14.8204 39.1081C14.7916 39.1555 14.7525 39.196 14.7054 39.2267C14.6584 39.2573 14.6047 39.2773 14.5486 39.2853C14.4962 39.2975 14.4421 39.299 14.3891 39.2898C14.336 39.2807 14.2851 39.261 14.2402 39.2321C14.117 39.1286 14.0371 38.9848 14.0157 38.828L13.7581 37.7646C13.6792 37.5171 13.656 37.256 13.6904 36.999C13.6904 36.999 13.5775 37.0257 13.3348 37.0682C13.0921 37.1108 12.9355 37.1338 12.9355 37.1338C13.0867 37.361 13.1824 37.6186 13.2163 37.8871L13.4186 38.7183C13.4742 38.9629 13.6279 39.1761 13.8454 39.3108C14.063 39.4456 14.3269 39.4908 14.5789 39.4367C14.8308 39.3827 15.0506 39.2337 15.1894 39.0224C15.3282 38.8112 15.3742 38.5551 15.3186 38.3105L15.0869 37.4704Z" fill="#90949C"/>
<path d="M17.9617 38.1032C17.5869 37.9426 17.2367 37.7314 16.9226 37.4759C17.0241 37.4063 17.1092 37.3161 17.1712 37.2117C17.2535 37.0761 17.2825 36.9165 17.2532 36.7617C17.2449 36.7132 17.2315 36.6656 17.2131 36.6198C17.1919 36.5707 17.1656 36.5238 17.1347 36.4798C17.0541 36.3611 16.9314 36.2753 16.7898 36.2388C16.5091 36.1779 16.2152 36.2124 15.9575 36.3364C15.698 36.4477 15.4323 36.5446 15.1616 36.6269C15.2876 36.6943 15.4394 37.1143 15.527 37.3482L15.863 38.3194C15.9613 38.5478 16.016 38.7915 16.0252 39.0389C16.0252 39.0389 16.153 39.0034 16.3665 38.929C16.58 38.8546 16.7185 38.8016 16.7185 38.8016C16.5944 38.7325 16.4575 38.3196 16.379 38.1087L15.8612 36.6696C15.8375 36.6058 15.8612 36.5897 15.8612 36.5897C15.9007 36.5622 15.9433 36.5396 15.9886 36.5224C16.1041 36.4739 16.2333 36.4675 16.3531 36.5047C16.4297 36.5346 16.4991 36.5798 16.5563 36.6375C16.6136 36.6953 16.6577 36.7641 16.6855 36.8396C16.7259 36.9147 16.7481 36.9978 16.7506 37.0826C16.7531 37.1673 16.7365 37.2515 16.7007 37.3287C16.6438 37.4483 16.545 37.545 16.4226 37.6018L16.3995 37.6124C16.3972 37.6132 16.395 37.6142 16.3932 37.6158C16.3914 37.6174 16.3898 37.6195 16.3888 37.6217C16.3878 37.6238 16.3871 37.626 16.387 37.6284C16.3869 37.6307 16.387 37.6331 16.3879 37.6353C16.7117 37.9658 17.0925 38.2394 17.5126 38.4435C17.6089 38.4711 17.7119 38.47 17.8076 38.4403C17.9032 38.4106 17.9871 38.3537 18.0491 38.277C18.0946 38.2328 18.1278 38.1777 18.1444 38.1173C18.1146 38.1272 18.0822 38.1312 18.0508 38.1288C18.0195 38.1263 17.9895 38.1176 17.9617 38.1032Z" fill="#90949C"/>
<path d="M5.54104 26.9433C5.42279 26.9123 5.32041 26.8412 5.25141 26.7429C5.06913 26.9593 4.93795 27.212 4.86731 27.483C4.79666 27.754 4.78805 28.0368 4.84235 28.3114C5.13836 29.2803 5.7262 30.1411 6.53026 30.7829C7.33433 31.4246 8.31724 31.8181 9.35354 31.9126C8.29746 31.5216 7.3784 30.8465 6.70315 29.9664C6.02791 29.0863 5.62468 28.0377 5.54104 26.9433Z" fill="#90949C"/>
<path d="M4.65445 27.3953C4.74918 27.0468 4.90341 26.7161 5.11074 26.4171C5.07034 26.2075 5.07497 25.9919 5.125 25.7843C5.01336 25.7101 4.90755 25.6285 4.80774 25.5398C4.66742 26.0401 4.60571 26.5581 4.62505 27.0762C4.63356 27.1826 4.6435 27.289 4.65445 27.3953Z" fill="#90949C"/>
<path d="M10.9787 31.8155C11.7803 31.6416 12.5288 31.2869 13.163 30.7801C13.7972 30.2733 14.2991 29.6287 14.629 28.8983C14.5439 28.9127 14.4577 28.9208 14.3714 28.923C14.3027 29.2481 14.1122 29.537 13.8367 29.7334C13.5612 29.9299 13.2205 30.0201 12.8805 29.9865C12.4438 29.9402 12.012 29.8572 11.59 29.7384C11.439 29.6833 11.3012 29.5996 11.1837 29.4922C11.0662 29.3848 10.9714 29.2558 10.9056 29.1127C10.8334 28.9619 10.7926 28.7987 10.7853 28.6325C10.7815 28.5018 10.7956 28.3713 10.8272 28.2443C9.26705 27.7894 7.75221 27.1992 6.30085 26.481C6.26044 26.5543 6.21192 26.6231 6.15648 26.6865C6.07828 26.7822 5.97814 26.8582 5.86328 26.908C5.97882 27.8817 6.32246 28.8166 6.86854 29.6408C7.48729 30.6578 8.48804 31.4019 9.66063 31.7162C10.0876 31.8397 10.5372 31.8736 10.9787 31.8155Z" fill="#90949C"/>
<path d="M5.2257 25.4864C5.27648 25.3701 5.34383 25.2615 5.42621 25.1638C5.48568 25.0953 5.55568 25.0356 5.63297 24.9866C5.80537 24.1428 6.21801 23.3629 6.82448 22.7358C5.93306 23.3511 5.2618 24.2218 4.90576 25.2259C5.00023 25.3257 5.10812 25.4133 5.2257 25.4864Z" fill="#90949C"/>
<path d="M5.61951 26.7076C5.68741 26.7097 5.75476 26.6946 5.81468 26.6634C5.87459 26.6323 5.92497 26.5864 5.96083 26.5304C6.0871 26.3702 6.17432 26.184 6.21482 25.9861C6.25532 25.7882 6.2479 25.5841 6.19432 25.3892C6.14322 25.251 6.06295 25.164 5.9644 25.1463C5.89879 25.1372 5.83252 25.145 5.77101 25.169C5.7095 25.1929 5.65511 25.2322 5.61416 25.2828C5.50132 25.4107 5.41581 25.5592 5.36285 25.7196C5.30988 25.8799 5.29063 26.0489 5.30581 26.2167C5.30885 26.2972 5.32464 26.3768 5.35304 26.4525C5.37306 26.5127 5.40825 26.5673 5.45464 26.6117C5.50103 26.6562 5.55723 26.689 5.61951 26.7076Z" fill="#90949C"/>
<path d="M14.0452 27.9502C13.9986 27.8686 13.9352 27.7973 13.8589 27.7406C13.7826 27.6839 13.6947 27.6429 13.6014 27.6205L13.3991 27.5781C13.2166 27.5427 12.9409 27.4876 12.5266 27.3884C12.2651 27.3212 11.987 27.3518 11.7477 27.4743C11.5084 27.5967 11.3252 27.8021 11.2344 28.0495C11.5045 28.1257 11.7693 28.1967 12.0284 28.2605C12.053 28.15 12.0698 28.038 12.0792 27.9254C12.0819 27.8845 12.101 27.8464 12.1327 27.8193C12.1644 27.7923 12.2064 27.7785 12.2485 27.7811C12.2907 27.7836 12.3294 27.8022 12.3573 27.833C12.3852 27.8637 12.3991 27.9039 12.3965 27.9448C12.3851 28.0753 12.3655 28.205 12.3368 28.3329L12.4901 28.3684L12.6433 28.4004C12.689 28.1842 12.7182 27.9999 12.72 27.9963C12.7271 27.9566 12.7496 27.9212 12.7833 27.8977C12.8169 27.8741 12.859 27.8644 12.9 27.8704C12.941 27.8764 12.9784 27.8978 13.0034 27.9299C13.0284 27.962 13.0389 28.0024 13.0337 28.0424C13.0337 28.0566 13.0009 28.2408 12.9553 28.4623L13.2583 28.5155C13.2793 28.4042 13.2938 28.2918 13.3019 28.1789C13.3029 28.1586 13.3082 28.1386 13.3171 28.1203C13.3259 28.1019 13.3382 28.0855 13.3536 28.0718C13.369 28.0581 13.3874 28.0475 13.4071 28.0407C13.4267 28.0338 13.4477 28.0308 13.4686 28.0318C13.4894 28.0327 13.5095 28.0377 13.5283 28.0463C13.5471 28.0549 13.5643 28.067 13.5782 28.082C13.5921 28.097 13.6025 28.1146 13.6094 28.1337C13.6163 28.1527 13.6195 28.1728 13.6183 28.193C13.6106 28.3166 13.5946 28.4397 13.572 28.5616C13.791 28.5917 13.9756 28.6077 14.1289 28.6148C14.187 28.3909 14.1573 28.1539 14.0452 27.9502Z" fill="#90949C"/>
<path d="M10.8964 17.4158C10.9235 18.6893 10.5048 19.9339 9.70845 20.9461C8.35967 22.254 7.24819 21.3006 7.23541 22.6138C6.5841 23.2349 6.14177 24.0333 5.96814 24.9036H6.00825C6.13733 24.9289 6.25179 25.002 6.3264 25.1074C7.21012 24.4182 8.23348 23.9175 9.3297 23.6378C10.4259 23.3581 11.5701 23.3057 12.6886 23.4839C13.2744 23.5901 13.8231 23.8382 14.2838 24.2052C13.6621 23.227 12.7172 22.483 11.6031 22.0946C11.3366 22.0024 10.8723 21.8959 10.8723 21.0594C10.8723 19.4998 12.6301 20.7051 13.7928 19.0126C13.8493 18.9293 13.7676 18.8566 13.7001 18.9222C13.2191 19.2762 12.6368 19.4768 12.0336 19.4964C11.8189 19.5126 11.603 19.4779 11.4053 19.3953C11.6877 18.8602 12.0109 18.3461 12.3713 17.8571C11.2963 16.8133 13.1011 11.071 17.8958 11.071C17.9062 10.0154 17.7989 8.9619 17.575 7.92888C17.46 7.95546 16.5582 8.16273 16.518 7.97842C16.4779 7.7941 17.1824 7.46104 17.4306 7.34584C17.3228 6.93893 17.1641 6.54613 16.9591 6.17609C12.8562 7.43262 13.6743 10.7307 12.6814 10.7307C12.1616 10.6831 11.6806 10.4441 11.3366 10.0626C8.88547 7.6825 10.0275 6.10702 10.0275 2.94354C10.0275 0.81683 9.17497 0.01581 7.60169 0.01581C7.21767 -0.0247665 6.82903 0.0129497 6.46097 0.126792C6.0929 0.240635 5.75372 0.427955 5.46462 0.676729C5.7602 0.686047 6.05118 0.752298 6.32016 0.871651C6.58915 0.991003 6.83061 1.16115 7.03133 1.37205C7.23205 1.58294 7.38804 1.83047 7.4894 2.10025C7.59076 2.37002 7.63588 2.65668 7.62218 2.94354C7.62218 5.24747 4.95219 5.88199 4.95219 8.80267C4.93394 13.6693 10.8964 13.5789 10.8964 17.4158ZM8.05263 2.94873C8.05431 2.69108 8.02517 2.43411 7.96529 2.1831C8.03558 2.17566 8.1031 2.15476 8.16492 2.12145C8.22674 2.08813 8.28164 2.04324 8.32533 1.98926C8.36902 1.93529 8.40107 1.87331 8.4198 1.8071C8.43852 1.7409 8.44322 1.67182 8.43405 1.60375C8.44322 1.45289 8.41123 1.30221 8.34137 1.16717C8.27152 1.03213 8.16668 0.91737 8.03659 0.83444C7.96906 0.83444 7.95089 0.9054 7.80488 0.9054C7.43985 0.9054 7.41988 0.460605 7.41988 0.460605H7.58386C8.6096 0.460605 9.55873 0.763671 9.55873 2.95241C9.55013 3.67697 9.50068 4.40058 9.41079 5.11992C9.33042 5.71036 9.29203 6.30548 9.29583 6.90105C9.29583 6.90105 7.509 6.69715 7.509 5.39099C7.509 4.54031 8.05263 4.33464 8.05263 2.94873Z" fill="#90949C"/>
<path d="M11.9497 28.5579C11.6814 28.4923 11.4018 28.4196 11.128 28.3398C11.0715 28.557 11.0931 28.7865 11.1886 28.9904C11.2865 29.2032 11.4667 29.37 11.6904 29.4546C12.0894 29.5649 12.4971 29.6426 12.9095 29.6868C13.1602 29.7088 13.4106 29.6436 13.6162 29.5027C13.8219 29.3618 13.9688 29.1544 14.0315 28.9177C13.8636 28.9088 13.683 28.8893 13.4968 28.8645C13.4624 28.9753 13.4164 29.0823 13.3587 29.1836C13.3484 29.201 13.3341 29.2163 13.3177 29.2286C13.3013 29.2409 13.2824 29.2499 13.2624 29.2552C13.2424 29.2604 13.2224 29.2619 13.2018 29.2593C13.1813 29.2567 13.161 29.2503 13.143 29.2403C13.125 29.2302 13.1093 29.2168 13.0967 29.2009C13.084 29.185 13.0744 29.1669 13.069 29.1474C13.0636 29.128 13.0628 29.1077 13.0655 29.0877C13.0681 29.0678 13.0748 29.0485 13.0851 29.031C13.1228 28.9622 13.1541 28.8906 13.1795 28.8167C13.081 28.8007 12.9822 28.7812 12.8837 28.7634C12.8549 28.8795 12.817 28.9933 12.7705 29.1037C12.7623 29.1223 12.7506 29.1392 12.7357 29.1533C12.7208 29.1674 12.7034 29.1785 12.684 29.1859C12.6647 29.1934 12.6442 29.197 12.6234 29.1966C12.6026 29.1961 12.5819 29.1918 12.5628 29.1836C12.5243 29.1669 12.4935 29.136 12.4782 29.0979C12.4628 29.0598 12.4642 29.0174 12.4808 28.9798C12.5182 28.8891 12.5489 28.796 12.5735 28.7013L12.4202 28.6678L12.258 28.6306C12.2288 28.721 12.1957 28.8078 12.1556 28.9071C12.1391 28.9447 12.1081 28.9742 12.0691 28.9895C12.0301 29.0048 11.9866 29.0044 11.9479 28.9884C11.9287 28.9809 11.911 28.9697 11.8962 28.9555C11.8815 28.9413 11.8694 28.9244 11.8615 28.9058C11.8535 28.8872 11.8498 28.8671 11.8499 28.8469C11.8499 28.8268 11.8534 28.8069 11.8615 28.7883C11.8961 28.7103 11.9241 28.6323 11.9497 28.5579Z" fill="#90949C"/>
<path d="M10.9279 27.9606C11.0422 27.6367 11.2784 27.3666 11.5892 27.2049C11.9 27.0432 12.2623 27.0018 12.6034 27.0887C13.0104 27.188 13.2708 27.2393 13.4625 27.2765L13.6728 27.3191C13.8089 27.3512 13.9365 27.4103 14.048 27.4926C14.1595 27.575 14.2525 27.6787 14.3207 27.7975C14.4619 28.0464 14.508 28.3357 14.4517 28.6146C14.5615 28.6204 14.6714 28.5964 14.7681 28.5453C15.1731 27.4162 15.1565 26.1849 14.7208 25.0666C14.4967 24.71 14.1898 24.4089 13.8252 24.1872C13.4606 23.9654 13.0476 23.8289 12.6194 23.7887C11.5335 23.6166 10.4226 23.6716 9.36035 23.9501C8.29805 24.2285 7.30879 24.7239 6.45954 25.4032C6.52061 25.6683 6.50678 25.9446 6.41943 26.2026C7.86382 26.9208 9.3732 27.5092 10.9279 27.9606Z" fill="#90949C"/>
</svg>
