<svg width="64" height="64" viewBox="0 0 64 64" fill="none" xmlns="http://www.w3.org/2000/svg">
<circle cx="32" cy="32" r="32" fill="#26324D"/>
<path d="M32.2029 32.5161C33.6467 34.6306 35.8452 36.4328 38.9949 38.1606C39.4726 38.4204 40.0185 38.5571 40.5681 38.5571C41.1177 38.5571 41.6632 38.4205 42.1472 38.1567C45.2969 36.4329 47.4955 34.6326 48.9373 32.5161H49.0242V42.5854C49.0241 43.697 48.0768 44.5991 46.9099 44.5991H17.3142C16.1495 44.5991 15.2001 43.697 15.2 42.5854V32.5161H32.2029ZM40.1492 16.4878C40.4176 16.3791 40.7157 16.3791 40.9841 16.4878L48.3835 19.5083C48.7723 19.6654 49.024 20.0296 49.0242 20.4321V24.4604C49.0241 30.0085 46.874 33.2469 41.0945 36.4106C40.9317 36.4992 40.7499 36.5434 40.5681 36.5435C40.3864 36.5435 40.2045 36.4992 40.0417 36.4106C34.2621 33.2388 32.1121 30.0005 32.1121 24.4604V20.4321C32.1122 20.0295 32.364 19.6653 32.7507 19.5083L40.1492 16.4878ZM44.3982 22.6694C43.9438 22.3256 43.2785 22.3942 42.9128 22.8267L39.5896 26.7866L38.2761 24.9116C37.9506 24.4464 37.2933 24.3252 36.8113 24.6313C36.3252 24.9394 36.1941 25.5637 36.5173 26.0269L38.6316 29.0483C38.8198 29.316 39.1306 29.4805 39.4666 29.4946H39.5105C39.8297 29.4946 40.1347 29.3562 40.3376 29.1187L44.5652 24.0835C44.9267 23.6485 44.8548 23.0138 44.3982 22.6694ZM29.9978 24.4604C29.9978 25.9326 30.1502 27.2583 30.4441 28.4888H15.2V24.4604C15.2 23.3509 16.1494 22.4468 17.3142 22.4468H29.9978V24.4604Z" fill="#CAAB72"/>
<path opacity="0.1" d="M32.8262 0.0107422C50.1175 0.44895 64 14.6031 64 32C64 49.3969 50.1175 63.551 32.8262 63.9893L32 64V0L32.8262 0.0107422Z" fill="#222939"/>
</svg>
