<svg width="64" height="64" viewBox="0 0 64 64" fill="none" xmlns="http://www.w3.org/2000/svg">
<circle cx="32" cy="32" r="32" fill="#26324D"/>
<path d="M32.0001 13.5997C21.8382 13.5997 13.6001 21.8377 13.6001 31.9997C13.6001 42.1618 21.8382 50.3997 32.0001 50.3997C42.162 50.3997 50.4001 42.1618 50.4001 31.9997C50.4001 21.8377 42.162 13.5997 32.0001 13.5997ZM38.3596 32.9751L29.1596 38.7251C28.9734 38.8413 28.7618 38.8997 28.5501 38.8997C28.3583 38.8997 28.1663 38.852 27.9925 38.7554C27.6269 38.5527 27.4001 38.168 27.4001 37.7497V26.2497C27.4001 25.8314 27.6269 25.4467 27.9925 25.2441C28.358 25.0402 28.805 25.0526 29.1596 25.2744L38.3596 31.0244C38.6957 31.235 38.9001 31.6033 38.9001 31.9997C38.9001 32.3961 38.6957 32.7646 38.3596 32.9751Z" fill="#CAAB72"/>
<path opacity="0.1" d="M32.8262 0.0107422C50.1175 0.44895 64 14.6031 64 32C64 49.3969 50.1175 63.551 32.8262 63.9893L32 64V0L32.8262 0.0107422Z" fill="#222939"/>
</svg>
